<svg version="1.1" id="Layer_1" xmlns:x="ns_extend;" xmlns:i="ns_ai;" xmlns:graph="ns_graphs;" xmlns="http://www.w3.org/2000/svg" xmlns:xlink="http://www.w3.org/1999/xlink" x="0px" y="0px" viewBox="0 0 271 100" style="enable-background:new 0 0 271 100;" xml:space="preserve">
 <style type="text/css">
  .st0{fill:#3D3C3C;}
 </style>
 <metadata>
  <sfw xmlns="ns_sfw;">
   <slices>
   </slices>
   <sliceSourceBounds bottomLeftOrigin="true" height="100" width="271" x="-6.1" y="-224.2">
   </sliceSourceBounds>
  </sfw>
 </metadata>
 <g>
  <g>
   <path class="st0" d="M68.1,50.5v-17c0-0.6,0.3-0.9,0.9-0.9h5.4c1.5,0,2.9,0.2,4.1,0.6c1.2,0.4,2.2,1,3,1.8
			c0.8,0.8,1.4,1.7,1.8,2.8c0.4,1.1,0.6,2.3,0.6,3.6c0,1.4-0.2,2.6-0.6,3.8c-0.4,1.1-1,2.1-1.9,2.9c-0.8,0.8-1.9,1.4-3.1,1.8
			c-1.2,0.4-2.6,0.6-4.2,0.6H68.1z M74.5,47.3c1,0,1.8-0.1,2.5-0.4c0.7-0.3,1.3-0.6,1.8-1.1c0.5-0.5,0.8-1.1,1-1.8
			c0.2-0.7,0.3-1.5,0.3-2.4c0-0.8-0.1-1.6-0.3-2.3c-0.2-0.7-0.6-1.3-1-1.7c-0.5-0.5-1.1-0.9-1.8-1.1c-0.7-0.3-1.5-0.4-2.5-0.4h-2.7
			v11.3H74.5z">
   </path>
   <path class="st0" d="M102.3,50.5h-3.9l-1.3-4.4h-7l-1.3,4.4h-3.8l5.2-17c0.1-0.3,0.2-0.5,0.4-0.6c0.2-0.1,0.4-0.2,0.8-0.2h4.5
			c0.3,0,0.6,0.1,0.8,0.2c0.2,0.1,0.3,0.4,0.4,0.6L102.3,50.5z M96.2,43.1L94,35.6h-0.8L91,43.1H96.2z">
   </path>
   <path class="st0" d="M120.3,49.7c0,0.6-0.3,0.9-0.9,0.9h-4.6c-0.3,0-0.6-0.1-0.8-0.2c-0.2-0.1-0.3-0.3-0.4-0.6l-5.1-13.9h-0.3
			v14.8h-3.4v-17c0-0.6,0.3-0.9,0.9-0.9h4.8c0.3,0,0.6,0.1,0.7,0.2c0.2,0.1,0.3,0.3,0.4,0.6l4.9,14.2h0.3v-15h3.4V49.7z">
   </path>
   <path class="st0" d="M144,50.5h-3.4V35.7h-0.3l-3.3,8.9c-0.1,0.3-0.2,0.5-0.4,0.6c-0.2,0.1-0.4,0.2-0.8,0.2h-3
			c-0.3,0-0.6-0.1-0.8-0.2c-0.2-0.1-0.3-0.3-0.4-0.6l-3.3-8.9h-0.3v14.9h-3.4v-17c0-0.6,0.3-0.9,0.9-0.9h4.7c0.3,0,0.6,0.1,0.8,0.2
			c0.2,0.1,0.3,0.4,0.4,0.6l2.8,8.9h0.1l2.8-8.9c0.1-0.3,0.2-0.5,0.4-0.6s0.4-0.2,0.8-0.2h4.6c0.6,0,0.9,0.3,0.9,0.9V50.5z">
   </path>
   <path class="st0" d="M163.7,50.5h-3.9l-1.3-4.4h-7l-1.3,4.4h-3.8l5.2-17c0.1-0.3,0.2-0.5,0.4-0.6c0.2-0.1,0.4-0.2,0.8-0.2h4.5
			c0.3,0,0.6,0.1,0.8,0.2c0.2,0.1,0.3,0.4,0.4,0.6L163.7,50.5z M157.7,43.1l-2.2-7.6h-0.8l-2.2,7.6H157.7z">
   </path>
   <path class="st0" d="M180.4,50.5h-3.1c-0.2,0-0.4,0-0.6,0c-0.2,0-0.3-0.1-0.4-0.1c-0.1-0.1-0.2-0.1-0.3-0.2
			c-0.1-0.1-0.2-0.2-0.3-0.4l-4-6.2c-0.1-0.1-0.2-0.3-0.2-0.4c-0.1-0.1-0.1-0.2-0.1-0.3c0-0.1-0.1-0.2-0.1-0.4c0-0.1,0-0.3,0-0.5
			v-0.9h1.8c0.5,0,1-0.1,1.3-0.2c0.4-0.1,0.7-0.3,0.9-0.5c0.2-0.2,0.4-0.5,0.5-0.9c0.1-0.3,0.2-0.7,0.2-1.1c0-0.4-0.1-0.8-0.2-1.1
			c-0.1-0.3-0.3-0.6-0.5-0.9c-0.2-0.2-0.5-0.4-0.9-0.6c-0.4-0.1-0.8-0.2-1.3-0.2h-3.2v14.8h-3.7v-17c0-0.6,0.3-0.9,0.9-0.9h5.8
			c1.1,0,2.1,0.1,2.9,0.4c0.8,0.3,1.5,0.7,2.1,1.2c0.6,0.5,1,1.1,1.3,1.8c0.3,0.7,0.4,1.5,0.4,2.3c0,0.6-0.1,1.2-0.3,1.7
			c-0.2,0.5-0.4,1-0.8,1.4c-0.4,0.4-0.8,0.8-1.3,1.1c-0.5,0.3-1.1,0.5-1.8,0.7L180.4,50.5z">
   </path>
   <path class="st0" d="M198.1,50.5h-3.6c-0.2,0-0.4,0-0.6,0c-0.2,0-0.3-0.1-0.4-0.1c-0.1-0.1-0.2-0.1-0.4-0.2
			c-0.1-0.1-0.2-0.2-0.3-0.4l-5.3-6.9h-0.7v7.6h-3.7V32.7h3.7v7.2h0.7l5.6-7.2h4.4l-7.1,8.4L198.1,50.5z">
   </path>
   <path class="st0" d="M210.7,36.5c-0.4-0.2-0.9-0.4-1.3-0.5c-0.4-0.1-0.9-0.2-1.4-0.3c-0.5-0.1-1.1-0.2-1.7-0.2
			c-1,0-1.8,0.1-2.4,0.4c-0.6,0.3-0.9,0.8-0.9,1.5c0,0.4,0.1,0.7,0.3,0.9c0.2,0.3,0.5,0.5,0.8,0.7c0.3,0.2,0.7,0.4,1.1,0.5
			c0.4,0.1,0.9,0.3,1.3,0.4c0.7,0.2,1.4,0.5,2,0.7c0.6,0.3,1.2,0.6,1.6,1c0.5,0.4,0.8,0.9,1.1,1.5c0.3,0.6,0.4,1.3,0.4,2.1
			c0,0.9-0.2,1.7-0.5,2.3c-0.3,0.7-0.8,1.3-1.4,1.7c-0.6,0.5-1.4,0.8-2.2,1.1c-0.9,0.2-1.8,0.4-2.9,0.4c-0.4,0-0.8,0-1.2-0.1
			c-0.4,0-0.8-0.1-1.2-0.2c-0.4-0.1-0.8-0.2-1.2-0.3c-0.4-0.1-0.8-0.3-1.1-0.4c-0.3-0.1-0.5-0.3-0.6-0.5c-0.1-0.2-0.2-0.4-0.2-0.7
			v-2.5c0.5,0.3,1,0.5,1.6,0.8c0.5,0.2,1.1,0.4,1.7,0.5c0.7,0.2,1.4,0.2,2.1,0.2c0.5,0,1,0,1.4-0.1c0.4-0.1,0.7-0.2,1-0.4
			c0.3-0.2,0.5-0.4,0.6-0.7c0.1-0.3,0.2-0.6,0.2-1c0-0.4-0.1-0.7-0.3-0.9c-0.2-0.3-0.4-0.5-0.7-0.7c-0.3-0.2-0.6-0.3-1-0.5
			c-0.4-0.1-0.8-0.3-1.2-0.4c-0.7-0.2-1.3-0.4-2-0.7c-0.7-0.3-1.3-0.6-1.8-1c-0.5-0.4-1-0.9-1.3-1.6c-0.3-0.6-0.5-1.4-0.5-2.3
			c0-0.9,0.2-1.6,0.5-2.3c0.4-0.6,0.9-1.2,1.5-1.6c0.6-0.4,1.4-0.7,2.2-0.9c0.8-0.2,1.7-0.3,2.7-0.3c0.3,0,0.7,0,1,0.1
			c0.3,0,0.7,0.1,1,0.1c0.3,0.1,0.7,0.1,1,0.2c0.3,0.1,0.6,0.2,0.9,0.3c0.3,0.1,0.6,0.3,0.6,0.5c0.1,0.2,0.1,0.4,0.1,0.6V36.5z">
   </path>
   <path class="st0" d="M83.6,76.8c0,0.6-0.3,0.9-0.9,0.9h-4.6c-0.3,0-0.6-0.1-0.8-0.2c-0.2-0.1-0.3-0.3-0.4-0.6l-5.1-13.9h-0.3v14.8
			h-3.4v-17c0-0.6,0.3-0.9,0.9-0.9h4.8c0.3,0,0.6,0.1,0.7,0.2c0.2,0.1,0.3,0.4,0.4,0.6l4.9,14.2h0.3v-15h3.4V76.8z">
   </path>
   <path class="st0" d="M103.4,77.6h-3.9l-1.3-4.4h-7l-1.3,4.4h-3.8l5.2-17c0.1-0.3,0.2-0.5,0.4-0.6c0.2-0.1,0.4-0.2,0.8-0.2H97
			c0.3,0,0.6,0.1,0.8,0.2c0.2,0.1,0.3,0.4,0.4,0.6L103.4,77.6z M97.3,70.2l-2.2-7.6h-0.8l-2.2,7.6H97.3z">
   </path>
   <polygon class="st0" points="112.3,77.6 108.6,77.6 108.6,63 102.9,63 102.9,59.8 117.9,59.8 117.9,63 112.3,63 		">
   </polygon>
   <rect x="120.4" y="59.8" class="st0" width="3.7" height="17.8">
   </rect>
   <path class="st0" d="M143.1,75.3c-0.5,0.6-1.2,1-1.8,1.5c-0.7,0.4-1.4,0.7-2.2,0.9c-0.8,0.2-1.7,0.3-2.6,0.3
			c-1.4,0-2.6-0.2-3.7-0.7c-1.1-0.5-2.1-1.1-2.9-2c-0.8-0.8-1.4-1.8-1.9-2.9c-0.4-1.1-0.7-2.3-0.7-3.6c0-1.3,0.2-2.5,0.7-3.7
			c0.4-1.1,1.1-2.1,1.9-3c0.8-0.8,1.8-1.5,2.9-2c1.1-0.5,2.4-0.7,3.7-0.7c1.3,0,2.6,0.2,3.7,0.7c1.1,0.5,2.1,1.1,2.9,2
			c0.8,0.8,1.4,1.8,1.9,2.9c0.4,1.1,0.7,2.3,0.7,3.6c0,0.9-0.1,1.7-0.3,2.5c-0.2,0.8-0.5,1.6-0.9,2.2
			C144.1,74.1,143.6,74.7,143.1,75.3 M138.7,74.3c0.7-0.3,1.2-0.7,1.7-1.3c0.5-0.5,0.8-1.2,1.1-1.9c0.3-0.7,0.4-1.5,0.4-2.4
			c0-0.8-0.1-1.6-0.4-2.4c-0.3-0.7-0.6-1.4-1.1-1.9c-0.5-0.5-1-1-1.7-1.3c-0.7-0.3-1.4-0.5-2.2-0.5c-0.8,0-1.5,0.2-2.2,0.5
			c-0.6,0.3-1.2,0.7-1.7,1.3c-0.5,0.5-0.8,1.2-1.1,1.9c-0.2,0.7-0.4,1.5-0.4,2.4c0,0.8,0.1,1.6,0.4,2.4c0.3,0.7,0.6,1.4,1.1,1.9
			s1,1,1.7,1.3c0.7,0.3,1.4,0.5,2.2,0.5C137.3,74.7,138,74.6,138.7,74.3">
   </path>
   <path class="st0" d="M164.4,76.8c0,0.6-0.3,0.9-0.9,0.9h-4.6c-0.3,0-0.6-0.1-0.8-0.2c-0.2-0.1-0.3-0.3-0.4-0.6l-5.1-13.9h-0.3
			v14.8h-3.4v-17c0-0.6,0.3-0.9,0.9-0.9h4.8c0.3,0,0.6,0.1,0.7,0.2c0.2,0.1,0.3,0.4,0.4,0.6l4.9,14.2h0.3v-15h3.4V76.8z">
   </path>
   <path class="st0" d="M184.1,77.6h-3.9l-1.3-4.4h-7l-1.3,4.4h-3.8l5.2-17c0.1-0.3,0.2-0.5,0.4-0.6c0.2-0.1,0.4-0.2,0.8-0.2h4.5
			c0.3,0,0.6,0.1,0.8,0.2c0.2,0.1,0.3,0.4,0.4,0.6L184.1,77.6z M178.1,70.2l-2.2-7.6h-0.8l-2.2,7.6H178.1z">
   </path>
   <polygon class="st0" points="198.4,77.6 186.7,77.6 186.7,59.8 190.3,59.8 190.3,74.4 198.4,74.4 		">
   </polygon>
   <path class="st0" d="M212,68.2c0.5,0.2,0.9,0.4,1.3,0.7c0.4,0.3,0.7,0.6,0.9,1c0.2,0.4,0.4,0.7,0.6,1.1c0.1,0.4,0.2,0.8,0.2,1.2
			c0,0.8-0.1,1.5-0.4,2.1c-0.3,0.7-0.6,1.2-1.2,1.7c-0.5,0.5-1.3,0.9-2.1,1.1c-0.9,0.3-1.9,0.4-3.2,0.4H201v-17
			c0-0.6,0.3-0.9,0.9-0.9h6c1.1,0,2,0.1,2.8,0.4c0.8,0.2,1.4,0.6,2,1c0.5,0.4,0.9,1,1.1,1.5c0.2,0.6,0.4,1.2,0.4,1.9
			c0,0.3,0,0.7-0.1,1c-0.1,0.3-0.2,0.7-0.4,1c-0.2,0.3-0.4,0.6-0.7,0.9C212.7,67.7,212.4,68,212,68.2L212,68.2z M208.1,67.1
			c0.5,0,0.9-0.1,1.2-0.2c0.3-0.1,0.6-0.3,0.8-0.5c0.2-0.2,0.3-0.4,0.4-0.7c0.1-0.3,0.1-0.6,0.1-0.9c0-0.4-0.1-0.8-0.2-1.1
			c-0.1-0.3-0.3-0.5-0.6-0.7c-0.3-0.2-0.7-0.3-1.1-0.4c-0.5-0.1-1.1-0.1-1.8-0.1h-2.3v4.4H208.1z M208.1,74.8c1.1,0,1.9-0.2,2.4-0.6
			c0.5-0.4,0.8-1,0.8-1.8c0-0.8-0.2-1.4-0.7-1.8c-0.5-0.4-1.2-0.6-2.3-0.6h-3.7v4.8H208.1z">
   </path>
   <path class="st0" d="M233.5,77.6h-3.9l-1.3-4.4h-7l-1.3,4.4h-3.8l5.2-17c0.1-0.3,0.2-0.5,0.4-0.6c0.2-0.1,0.4-0.2,0.8-0.2h4.5
			c0.3,0,0.6,0.1,0.8,0.2c0.2,0.1,0.3,0.4,0.4,0.6L233.5,77.6z M227.5,70.2l-2.2-7.6h-0.8l-2.2,7.6H227.5z">
   </path>
   <path class="st0" d="M251.5,76.8c0,0.6-0.3,0.9-0.9,0.9H246c-0.3,0-0.6-0.1-0.8-0.2c-0.2-0.1-0.3-0.3-0.4-0.6l-5.1-13.9h-0.3v14.8
			H236v-17c0-0.6,0.3-0.9,0.9-0.9h4.8c0.3,0,0.6,0.1,0.7,0.2c0.2,0.1,0.3,0.4,0.4,0.6l4.9,14.2h0.3v-15h3.4V76.8z">
   </path>
   <path class="st0" d="M271,77.6h-3.6c-0.2,0-0.4,0-0.6,0c-0.2,0-0.3,0-0.4-0.1c-0.1-0.1-0.2-0.1-0.4-0.2c-0.1-0.1-0.2-0.2-0.3-0.4
			l-5.3-6.9h-0.7v7.6h-3.7V59.8h3.7V67h0.7l5.6-7.2h4.4l-7.1,8.4L271,77.6z">
   </path>
   <polygon class="st0" points="48,82.4 48,82.4 48,82.4 		">
   </polygon>
   <path class="st0" d="M41.2,32.6c-0.3,0-0.5-0.1-0.8-0.1c0.8-0.2,1.3-0.9,1.3-1.7v-1.4c0-0.7-0.4-1.3-1-1.6
			c0.5,0.1,0.9,0.2,1.4,0.3l0.1-1.1c0,0,3-1.1,2.3-4.3c0.6,0.1,1.7,0.2,1.6-1.5c0,0,1,0.2,1.1-1.3c0.6-0.1,1.2-0.7,0.8-1.5
			c0.7-0.5,1.1-1,0.5-2.2c0.6-0.8,0.4-1.5-0.3-2c0.5-0.7,0.1-1.4-0.7-1.9c-0.2-1.1-0.5-1.4-1.4-1.4c-0.4-0.9-1.3-0.9-2-0.6
			C44,9.4,42.7,9.4,42.4,10c0,0-0.9-0.5-1.9,0.3c-0.3-1.2-1-1.5-1.7-1.4c-0.4-1-1.2-1.1-1.9-0.8c-0.9-0.3-1.4-0.4-2,0.2
			c-0.6-0.2-1-0.3-1.4,0.3c-1,0-1.4,0.3-1.5,0.9c-0.2,0.1-0.6,0.2-0.7,0.7c-0.3,0.1-0.8,0-1,0.5c-0.5,0.3-0.6-0.1-1.4,0.2
			c1.3-1.1,1-1.8,1-1.8C28.9,9,27.9,8.9,27,8.9c-0.9,0-1.9,0.1-2.8,0.4c0,0-0.3,0.7,1,1.8c-0.7-0.4-0.9,0-1.4-0.2
			c-0.2-0.5-0.7-0.4-1-0.5c-0.1-0.5-0.5-0.6-0.7-0.7c-0.2-0.6-0.5-0.8-1.5-0.9c-0.4-0.6-0.8-0.5-1.4-0.3c-0.6-0.7-1.2-0.5-2-0.2
			c-0.7-0.3-1.5-0.2-1.9,0.8c-0.7-0.1-1.4,0.2-1.7,1.4c-1-0.7-1.9-0.3-1.9-0.3c-0.3-0.7-1.7-0.6-1.8,0.2c-0.7-0.3-1.6-0.2-2,0.6
			c-0.8,0-1.2,0.4-1.4,1.4c-0.7,0.5-1.2,1.2-0.7,1.9c-0.7,0.5-0.9,1.2-0.3,2C4.8,17.4,5.3,18,6,18.4c-0.4,0.8,0.2,1.4,0.8,1.5
			c0.1,1.5,1.1,1.3,1.1,1.3c-0.1,1.7,1,1.6,1.6,1.5c-0.7,3.3,2.3,4.3,2.3,4.3l0.1,1.1c0.5-0.1,0.9-0.2,1.4-0.3c-0.6,0.3-1,0.9-1,1.5
			v1.4c0,0.8,0.6,1.5,1.4,1.7c-0.3,0-0.5,0.1-0.8,0.1H0v54.8c0,5.1,4.1,9.2,9.2,9.2h12c3.8,0,5.2,1.9,5.8,3.4
			c0.6-1.5,2.1-3.4,5.8-3.4h12c5.1,0,9.2-4.1,9.2-9.2V32.6H41.2z M45.2,20.1l-0.8-0.1c1.3-1.2,1.9-3.1,1.9-4.7
			c-0.1-1.9-2.2-3.5-4.9-2.8C41.5,10.6,50.5,12,45.2,20.1 M40.7,17.6c0.2-0.3,0.6-0.2,0.7-0.7c0.1-0.5-0.1-0.5,0-0.8
			c0.1-0.3,0.5-0.2,0.6-0.9c0.1-0.4-0.1-0.6-0.1-0.6s-0.3-0.3,0.1-0.3c0.3,0,0.8-0.1,1,0c0.3,0.1,0,0.5,1.2,0.8c0,0,0.3,1.2,0.6,1.7
			c-0.1,0.6-0.3,0.6-0.5,1.3c0,0-1.3,0.1-1.3,2.1c0,0-0.4,0.5-1.2,0.1c-0.4-0.2-0.3-0.6-1-0.8c-0.5-0.2-1.7,0.2-1.7,0.2
			s0.1-0.4,0.3-0.7c0.3-0.4,0.6,0,1-0.6C40.6,18.2,40.5,17.9,40.7,17.6 M30.8,11.5c2.8-0.3,4.1-2.8,7.5-1c2,1,3.4,4.5-0.2,8
			c0,0-0.4,0-0.5-0.3c0,0,3.5-3.7,1.1-6.4c-1.1-1.2-2.5-1.8-5.4-0.5c-1.4,0.6-2.4,0.5-2.4,0.5S30.4,11.6,30.8,11.5 M29.3,17.8
			c0,0,0.3-0.5,0.7-0.8c0.1-0.1,0-0.1,0.1-0.2c0.1-0.3,0.4-0.7,0.6-0.9c0.1-0.1,0.1-0.1,0.1-0.2c-0.1-0.5,0-2.1,0.6-2.8
			c1.7,0.1,3.5-0.5,4.7-1.1c0.2,0.4,0.4,1.7,1.2,2.4c-0.1,0.5,0.1,1.3,0.2,1.6c-0.9,0.8-1.7,2.6-1.7,2.6l-2.6-1.3
			c-0.7,0.5-1,0.2-1.3,0c0,0-0.2,0.1-0.7,0.3c-1.2,0.6-0.6,0.3-1.5,0.7C28.8,18.6,29.3,17.8,29.3,17.8 M27.8,13.7
			c0.7-0.4,0.2-0.9,0-1c0-0.6,0-0.7,0-0.7c0.2-0.1,0.9-0.2,1,0.4c0.1,1.9,0,4.1-0.4,4.9c0,0.1-0.6,0-0.6,0v-0.8l0.3-0.5
			c0,0-0.3-0.6-0.3-0.7c0-0.3,0.4-0.2,0.4-0.8C28.2,14.3,27.8,13.7,27.8,13.7 M25.1,12.4c0.1-0.6,0.8-0.5,1-0.4c0,0,0,0,0,0.7
			c-0.2,0.1-0.7,0.6,0,1c0,0-0.4,0.6-0.4,0.9c0,0.6,0.4,0.5,0.4,0.8c0,0.1-0.3,0.7-0.3,0.7l0.3,0.5v0.8c0,0-0.5,0.1-0.6,0
			C25.2,16.5,25,14.3,25.1,12.4 M24,16.8c0,0.1,0,0.2,0.1,0.2c0.3,0.3,0.7,0.8,0.7,0.8s0.5,0.8-0.4,0.4c-0.9-0.4-0.3-0.1-1.5-0.7
			c-0.5-0.2-0.7-0.3-0.7-0.3c-0.3,0.2-0.5,0.5-1.3,0l-2.6,1.3c0,0-0.9-1.9-1.7-2.6c0.1-0.2,0.3-1,0.2-1.6c0.8-0.7,1-2,1.2-2.4
			c1.2,0.6,3,1.2,4.7,1.1c0.6,0.7,0.7,2.3,0.6,2.8c0,0.1,0,0.2,0.1,0.2C23.6,16.1,23.9,16.5,24,16.8 M15.7,10.6
			c3.4-1.8,4.7,0.6,7.5,1c0.4,0,0,0.3,0,0.3s-1,0.1-2.4-0.5c-2.9-1.2-4.3-0.7-5.4,0.5c-2.5,2.7,1.1,6.4,1.1,6.4
			c-0.1,0.3-0.5,0.3-0.5,0.3C12.3,15,13.7,11.6,15.7,10.6 M12.6,16.1c0.1,0.3-0.1,0.3,0,0.8c0.1,0.5,0.5,0.4,0.7,0.7
			c0.2,0.3,0.1,0.6,0.3,1c0.4,0.6,0.7,0.2,1,0.6c0.2,0.3,0.3,0.7,0.3,0.7s-1.1-0.3-1.7-0.2c-0.7,0.2-0.5,0.6-1,0.8
			c-0.9,0.4-1.2-0.1-1.2-0.1c0-2-1.3-2.1-1.3-2.1c-0.2-0.7-0.4-0.7-0.5-1.3c0.3-0.5,0.6-1.7,0.6-1.7c1.1-0.3,0.9-0.7,1.2-0.8
			c0.2-0.1,0.7,0,1,0c0.4,0,0.1,0.3,0.1,0.3s-0.2,0.2-0.1,0.6C12.1,15.9,12.6,15.8,12.6,16.1 M12.5,12.4c-2.7-0.7-4.8,0.9-4.9,2.8
			c-0.1,1.5,0.6,3.5,1.9,4.7l-0.8,0.1C3.4,12,12.5,10.6,12.5,12.4 M13.2,26.8c-1.1,0.1-1.5-1.9-1.5-1.9c-0.2,0-0.8,0.3-0.9-0.8
			c0-1.5-0.9-2.1-1.3-2.3c-0.9,0.8-1.4-0.4-1-0.8c1.2-1.2,2.3,0.6,2.3,0.6s0.3-0.8,0.6-0.4c0.5,0.4,0,1.5,0,1.5s0.1,0.8,0.4,0.8
			c0.9,0,0.6-1.4,1-1.4c0.3,0,0.2,0.9,0.2,0.9s0.8-0.8,1.2-0.1c0.5,0.7-0.5,1.1-0.5,1.1s0.6,0.5,0.4,0.8c-0.2,0.3-1.2-0.2-1.2-0.2
			c-0.3-0.1-0.6,0.2-0.6,0.5c0.4,2.3,3.1,0.8,2.5-0.1c-0.7-1,1.2-1.2,0.6-0.1c-0.2,0.4,0.5,1.2,1.4,1c1.3-0.4,0.9-3,0.2-1.9
			c-0.1,0.2-0.4,0.7-0.8,0.6c-0.4-0.1-0.1-0.9-0.1-0.9s-0.9,0.5-1.1-0.4c-0.1-0.7,0.4-0.8,0.4-0.8s-0.2-0.4,0-0.5
			c0.1-0.1,0.5-0.1,0.6,0.3c0.4,1,2.2,0.3,0.2-0.7c-1.5-0.8,0.1-0.9,0.1-0.9S16,19,17.2,18.8c1.2-0.2,1.2,1.2,1.2,1.2
			s0.2-0.5,0.7-0.3c0.3,0.1,0.2,0.8-0.4,1.5c-0.3,0.4-0.5,0.8,0,0.9c1,0.3,0.4-1.1,1.4-1.1c0.6,0,0.2,0.7,0.2,0.7s0.9-0.3,1,0.6
			c0.1,0.6-0.6,0.9-0.6,0.9s0.4,0.4,0,0.7c-0.2,0.1-0.7,0-0.8-0.4c-0.1-0.4-0.7-0.6-0.8-0.2c-0.3,1.2,0.6,2.1,1.2,2.1
			c1.5,0,1.9-0.9,1.5-1.6c-0.6-1,1.1-1.1,0.7,0c-0.2,0.4,0.2,1.6,2,1.5c1.7,0,2.2-1.8,1.7-2.1c-0.6-0.3-0.8,0.5-1.4,0.9
			c-0.6,0.4-1.1-0.2-0.6-0.9c0,0-1.1,0.2-1.1-0.8c0-1,1.2-0.8,1.2-0.8c-0.2-0.7,0.2-1.3,0.9-0.1c0.6,1,1.8,0.1,0.5-0.8
			c-1.2-0.8-0.2-1.6-0.2-1.6c0.3,0.4,0.6,0.2,0.6,0.2c0-1.1,0.7-1.1,1-1.1s1,0.1,1,1.1c0,0,0.3,0.2,0.6-0.2c0,0,1,0.7-0.2,1.6
			c-1.3,0.9-0.2,1.8,0.5,0.8c0.7-1.2,1.2-0.6,0.9,0.1c0,0,1.2-0.2,1.2,0.8c0,1-1.1,0.8-1.1,0.8c0.5,0.8-0.1,1.3-0.6,0.9
			c-0.6-0.4-0.8-1.2-1.4-0.9c-0.5,0.3-0.1,2.1,1.7,2.1c1.8,0,2.2-1.1,2-1.5c-0.4-1.1,1.3-1,0.7,0c-0.4,0.7,0,1.6,1.5,1.6
			c0.6,0,1.5-0.8,1.2-2.1c-0.1-0.4-0.6-0.2-0.8,0.2c-0.1,0.4-0.6,0.6-0.8,0.4c-0.4-0.3,0-0.7,0-0.7s-0.7-0.3-0.6-0.9
			c0.1-0.8,1-0.6,1-0.6s-0.4-0.7,0.2-0.7c0.9,0,0.4,1.4,1.4,1.1c0.5-0.1,0.3-0.5,0-0.9c-0.6-0.7-0.7-1.4-0.4-1.5
			c0.4-0.2,0.7,0.3,0.7,0.3s0-1.4,1.2-1.2c1.2,0.1,0.7,1.6,0.7,1.6s1.6,0,0.1,0.9c-1.9,1.1-0.2,1.8,0.2,0.7c0.2-0.4,0.5-0.4,0.6-0.3
			c0.1,0.1,0,0.5,0,0.5s0.5,0.1,0.4,0.8c-0.2,0.9-1.1,0.4-1.1,0.4s0.3,0.7-0.1,0.9c-0.4,0.1-0.7-0.4-0.8-0.6c-0.7-1-1.1,1.5,0.2,1.9
			c0.9,0.3,1.6-0.6,1.4-1c-0.6-1.1,1.3-1,0.6,0.1c-0.6,0.9,2.1,2.4,2.5,0.1c0.1-0.3-0.3-0.6-0.6-0.5c0,0-1,0.5-1.2,0.2
			c-0.2-0.3,0.4-0.8,0.4-0.8s-1-0.4-0.5-1.1c0.5-0.7,1.2,0.1,1.2,0.1S40.7,22,41,22c0.4,0,0.2,1.4,1,1.4c0.3,0,0.4-0.8,0.4-0.8
			s-0.5-1.1,0-1.5c0.3-0.3,0.6,0.4,0.6,0.4s1-1.8,2.3-0.6c0.4,0.4,0,1.7-1,0.8c-0.3,0.2-1.2,0.8-1.3,2.3c0,1.1-0.7,0.7-0.9,0.8
			c0,0-0.4,2-1.5,1.9c-5.3-0.8-9.9-1.1-13.8-1.1C23.1,25.7,18.5,26,13.2,26.8 M39.1,32.3c-3.5-0.5-7.6-0.7-12.1-0.7
			c-4.5,0-8.7,0.3-12.2,0.7c0.5-0.3,0.9-0.9,0.9-1.5v-1.4c0-0.9-0.7-1.6-1.5-1.7c4.5-0.7,8.8-1,12.8-1c3.9,0,8.3,0.2,12.8,1
			c-0.8,0.1-1.5,0.8-1.5,1.7v1.4C38.2,31.4,38.6,32,39.1,32.3 M26.6,97.5c-1.1-1.3-2.8-1.8-5.5-1.8h-12c-4.6,0-8.3-3.7-8.3-8.3V74.5
			h25.7V97.5z M28.1,96.9c-0.2,0.2-0.5,0.4-0.7,0.6v-23h0.7V96.9z M29.5,96.1c-0.2,0.1-0.5,0.2-0.7,0.3V74.5h0.7V96.1z M31,75.5
			c-0.1,0.2-0.1,0.5,0,0.8v2l-0.5-0.1l0.5,1v5l-0.5,0.6l0.5,0.7v10.2c-0.2,0-0.5,0.1-0.7,0.1V74.5H31V75.5z M32.5,95.7
			c-0.2,0-0.5,0-0.7,0v-4.6h0.7V95.7z M33.9,95.7h-0.7v-4.6h0.7V95.7z M35.4,95.7h-0.7v-4.6h0.4l0.3,0.4V95.7z M36.9,95.7h-0.7v-3.1
			l0.7,0.9V95.7z M38.4,95.7h-0.7V94l0.7-0.9V95.7z M37.5,93.5l-2.1-2.9l-3.7,0l1.2-3.2l-1.8-2.5l1.9-2.4L31.4,79l3.1,0.8v6.3
			c0,1.1,0.4,2.2,1.2,3c1.2,1.2,2.3,2.1,3.3,2.4L37.5,93.5z M31.8,89.1v-2.4l0.6,0.9L31.8,89.1z M31.8,83.2V81l0.7,1.4L31.8,83.2z
			 M32.3,75.6l0.1,0.1l0.1-0.1c0.3-0.2,0.5-0.2,0.7-0.1c0.1,0.1,0.1,0.4-0.1,0.8l-0.1,0.1l1,1.5l-1.6-0.8l-0.1,0.1
			c-0.3,0.2-0.6,0.3-0.8,0.2c-0.1-0.1-0.1-0.4,0-0.7l0-0.1l-0.1-0.1c-0.2-0.3-0.3-0.6-0.1-0.8C31.6,75.5,32,75.5,32.3,75.6
			 M31.8,75.1v-0.5h0.7v0.6c0,0,0,0-0.1,0C32.2,75.1,32,75,31.8,75.1 M33.9,74.7v2.2l-0.3-0.5c0.2-0.5,0.2-1-0.1-1.2
			c-0.1-0.1-0.1-0.1-0.2-0.1v-0.5h0.7V74.7z M33.9,78.4v0.8L33.3,79V78L33.9,78.4z M32.5,77.7v1.1l-0.7-0.2v-0.7
			C32,77.9,32.2,77.8,32.5,77.7 M39.8,95.7h-0.7v-1.1c0.1,0,0.1,0.1,0.2,0.1c0.1,0.3,0.2,0.5,0.4,0.6V95.7z M40.2,95L40.2,95
			c-0.2,0-0.4-0.2-0.4-0.5l0-0.1l-0.1,0c-0.3-0.1-0.4-0.2-0.4-0.3c0-0.1,0.2-0.3,0.5-0.3l0.1,0l0.4-1l0.4,1l0.1,0
			c0.3,0.1,0.5,0.2,0.5,0.4c0,0.1-0.1,0.2-0.4,0.3l-0.1,0l0,0.1C40.6,94.8,40.4,95,40.2,95 M41.3,95.7h-0.7v-0.4
			c0.2-0.1,0.3-0.3,0.4-0.6c0.1,0,0.2-0.1,0.3-0.1V95.7z M41.3,93.5c-0.1-0.1-0.2-0.1-0.4-0.2l-0.7-1.9l-0.7,1.9
			c-0.1,0-0.3,0.1-0.4,0.2V92l0.6-0.7l-0.3-0.1c-1-0.3-2.2-1.1-3.4-2.4c-0.7-0.7-1.1-1.7-1.1-2.7v-6.7l-0.2-0.1v-0.6l0.6,0.3
			l-0.6-0.9v-1.6l1,2.2h9l1-2.2v1.7l-0.6,0.9l0.6-0.3v0.6l-0.2,0.1v6.7c0,1-0.4,1.9-1.1,2.7c-1.2,1.3-2.4,2.1-3.4,2.4l-0.3,0.1
			l0.6,0.8V93.5z M37.8,77.3l2.5-2.1l2.5,2.1l2.8-1.6l-1.1,2.5h-4.2H36l-1.1-2.5L37.8,77.3z M36.2,76v-1.5h0.7v1.8L36.2,76z
			 M37.7,76.8v-2.3h0.7v1.7L37.7,76.8L37.7,76.8z M39.2,75.5v-1h0.7v0.4L39.2,75.5z M40.6,75v-0.4h0.7v1L40.6,75z M42.1,76.2v-1.7
			h0.7v2.3l0,0L42.1,76.2z M43.6,76.3v-1.8h0.7V76L43.6,76.3z M45,75.5v-1h0.7v0.6L45,75.5z M35.4,75.5l-0.7-0.4v-0.6h0.7V75.5z
			 M42.8,95.7h-0.7v-2.5l0.7,0.9V95.7z M44.2,95.7h-0.7v-2.2l0.7-0.9V95.7z M45.7,95.6c-0.2,0-0.4,0-0.7,0v-4.2l0.2-0.3h0.4V95.6z
			 M47.2,95.3c-0.2,0.1-0.4,0.1-0.7,0.2v-4.4h0.7V95.3z M48.7,94.7c-0.2,0.1-0.4,0.2-0.7,0.3v-3.9h0.7V94.7z M47.5,87.4l1.2,3.2
			l-3.7,0L43,93.5l-1.5-2c1-0.4,2.1-1.2,3.3-2.4c0.8-0.8,1.2-1.9,1.2-3v-6.3l3.1-0.8l-1.6,3.5l1.9,2.4L47.5,87.4z M48.7,86.6v2.5
			L48,87.5L48.7,86.6z M46.5,74.7v-0.2h0.7v0.6c-0.1,0-0.1,0.1-0.2,0.1c-0.3,0.2-0.3,0.7-0.1,1.2l-0.4,0.6V74.7L46.5,74.7L46.5,74.7
			z M47.4,76.4l-0.1-0.1c-0.2-0.3-0.2-0.7-0.1-0.8c0,0,0.1-0.1,0.2-0.1c0.1,0,0.3,0.1,0.5,0.2l0.1,0.1l0.1-0.1
			c0.3-0.2,0.7-0.2,0.8,0c0.2,0.2,0.1,0.5-0.1,0.8l-0.1,0.1l0,0.1c0.1,0.3,0.1,0.6,0,0.7c-0.1,0.1-0.5,0-0.8-0.2L48,77.1l-1.6,0.8
			L47.4,76.4z M48,75.1v-0.6h0.7v0.5C48.5,75,48.3,75.1,48,75.1C48,75.2,48,75.2,48,75.1 M48.7,77.9v0.7L48,78.8v-1.1
			C48.2,77.8,48.5,77.9,48.7,77.9 M47.2,78V79l-0.7,0.2v-0.8L47.2,78z M48.7,80.9v2.4L48,82.4L48.7,80.9z M50.1,93.7
			c-0.2,0.2-0.4,0.4-0.7,0.5v-8.7l0.4-0.6l-0.4-0.6v-5.1l0.4-0.9l-0.4,0.1v-1.9c0.1-0.3,0.1-0.7,0-0.9v-1h0.7V93.7z M51.6,92.1
			c-0.2,0.3-0.4,0.6-0.7,0.9V74.5h0.7V92.1z M53.1,87.4c0,1.1-0.2,2.2-0.6,3.2V74.5h0.6V87.4z M53.1,73.4H0.9V33.5h52.1V73.4z">
   </path>
   <path class="st0" d="M43.9,88.3c0.6-0.6,0.9-1.4,0.9-2.2v-6.7h-9.2v6.7c0,0.8,0.3,1.6,0.9,2.2c0.9,1,2.4,2.3,3.7,2.3
			C41.5,90.6,43,89.3,43.9,88.3 M36.3,80.1h7.7v4.3h-7.7V80.1z">
   </path>
   <path class="st0" d="M27.6,6.6v1.6l2.1,0.1C29.7,8.4,30.1,6.4,27.6,6.6">
   </path>
   <path class="st0" d="M24.2,8.4l2.1-0.1V6.6C23.8,6.4,24.2,8.4,24.2,8.4">
   </path>
   <path class="st0" d="M24.1,5.4c0.1,0.6,1.3,1,1.8-0.4c0.2,0,0.2,0,0.3,0c0.1,0.3,0.1,1.2,0.1,1.2l0.7,0l0.7,0c0,0,0-0.8,0.1-1.2
			c0.1,0,0.1,0,0.3,0c0.5,1.4,1.6,1,1.8,0.4c1.5,0.1,1.5-2.1,0-2.2c-0.5-1.3-1.6-0.4-1.7,0.2c0,0.1-0.4,0.1-0.4,0c0-0.3,0-0.7,0-0.7
			c1.7-0.5,0.9-1.8,0.4-1.8C28.1,0.3,27.4,0,27,0c-0.5,0-1.1,0.3-1.2,1.1c-0.4-0.1-1.3,1.3,0.4,1.8c0,0,0,0.4,0,0.7
			c0,0.1-0.4,0.1-0.4,0c-0.1-0.7-1.2-1.5-1.7-0.2C22.6,3.3,22.6,5.5,24.1,5.4">
   </path>
   <polygon class="st0" points="32.3,29.4 34.1,31.4 36.1,29.7 34.4,27.6 		">
   </polygon>
   <polygon class="st0" points="17.8,29.7 19.9,31.4 21.6,29.4 19.6,27.6 		">
   </polygon>
   <path class="st0" d="M28.4,27.8h-2.9c-0.5,0-0.9,0.4-0.9,0.9v1.5c0,0.5,0.4,0.9,0.9,0.9h2.9c0.5,0,0.9-0.4,0.9-0.9v-1.5
			C29.4,28.2,28.9,27.8,28.4,27.8">
   </path>
   <rect x="35.2" y="22.3" class="st0" width="1.3" height="0.9">
   </rect>
   <rect x="26.2" y="21.8" class="st0" width="1.6" height="1">
   </rect>
   <rect x="17.5" y="22.3" class="st0" width="1.3" height="0.9">
   </rect>
   <path class="st0" d="M10.4,39.7c0.8-0.8,0.6-0.4,0.9,0c0.6,0.5,1.3-0.1,1.3-0.1l-0.1,0.9l-0.6,0.4c0,0,0.4,1.6,1.9,0.1l0.4,0.4
			c0,0,0,0.4,0.3,0.6c0.4,0.3,1,0.1,1,0.1s0.7,0.7,1.6-0.2c1.1,0.4-0.4,0.7-1.6,1.3c-0.9,0.4-1,0.7-1.2,0.7
			c-0.4,0.1-0.9-0.2-0.9-0.2c0.5-2.5-2.5-1.5-2.2-0.9c0.8,0.2,0.7,0.1,0.7,0.4c-0.4,0.2-1.6,0.1-1.4,1.5c0.6-0.4,1.4-0.3,0.4,0.6
			c-0.6,0.5-0.2,1.1,0.5,1.6c0.1-0.2,0-0.8,0.5-0.4c0.5,0.5,0.4-0.6,1.3-0.8c0.9-0.2,0.3,0.6,0.9,0.5c0.6-0.1,0,0.2-0.1,0.6
			c-0.1,0.4,1.6,0,1.6-1.5c1.3-0.1,2.2,0.2,3.1,0.4c0.1-0.8,0.3-1.2,0.7-1.2c0.4,0,0.4,1.1,1.6,0.8l-0.3-0.9l2.2,0.1
			c0.2,0.1,1,0.2,1.3-0.5c0,0,0.7,0,1.4-0.4c0.4-0.2,0.5-0.6,0.5-0.6c1.1-1.1,2.6-2,4.2-2c1.1,0,0.8,0.2,0.2,0.6
			c-0.8,0.5-0.7,0.8-1.1,1.7c-0.2,0.4-0.7,0.6-1.4,0.3c0.6-1.8-2-0.4-1.6-0.3c0.7,0.3,0.5,0.4,0.5,0.4c-2.2-0.3-1.5,1.3-1.5,1.3
			c0.1-0.3,1.2-0.9,0.6-0.1c-0.9,1,0.5,1.6,0.3,1.2c-0.2-0.4,0-0.7,0.4-0.7c0.4,0,0.8,0.4,1.2,0.1c0.9-0.5,1.2-0.3,1.2,0.5
			c0,0,0.9,0.1,1.6-1.3c0.7,0.3,1.1-0.1,1.1-0.1s0.5,0.1,0.7,0c0.3-0.1,0.5-0.2,0.6-0.4c0.9,1,2.1,0.1,2-1c-1.4,1.2-1-0.6-1.1-1.1
			c-0.1-0.4,0.7-1.1,0.7-0.2c0,0.8,0.6,0.6,0.8,0.7c0.3,0.2,0.4,0.7,1.1,0.9c0.6,0.2,2.4-0.2,2.9-0.4c0.4-0.1,1.4,0,1.4,0.7
			c0,0.7-0.4,0.6-0.6,0.2c-0.4-0.6-0.7-0.9-1.3-0.2c-0.4,0.4,0.1,0.3,0.1,0.3c0.4,0.3,0,0.7-0.4,1.1c-0.9,0.7,0.1,1.1-0.1,0.9
			c-0.1-0.2,0.1-0.3,0.5-0.2c0.3,0.1,0.3,0.2,0.8,0.2c0.3,0,0.7-0.5,0.7-0.5s-0.3,1.8,1.2,1.3l-0.1-0.5c1.2-0.4,0.4-1.1,0.7-1
			c0.4,0.1,0.6,0,0.9-0.2c0.2-0.2,0.3-0.5,0.3-0.5l0.1,0.9c1-0.1,0.3-1.6,0.3-1.6s-0.5-1-1.2,0.1c-0.3-0.6,0.5-0.6,0.8-0.7
			c0.6-0.2,0.2-0.4,0.1-0.4c-0.2,0-0.5-0.1-0.1-0.9c0.4-0.9-0.4-1.4-0.4-1.4c-0.2,0.5-0.8,0.7-1.2,0.4c-0.4-0.3-1-0.3-1.1-0.3
			c-1.1,0.2-1.5,0-2.3-0.1c-0.7,0-0.5-0.5,0-0.4c2,0.3,2.7-0.1,2.7-0.1s0.4,0.3,1,0.4c-0.2-0.8,0-1.4,0.7-2.3
			c-0.2,0-0.6,0.1-0.9,0.1c-0.3-0.4,0.3-1.1,0.6-1c-0.9-1.4-1.4,0.2-1.5-0.2c-0.1-0.4-0.8-1-1.4-1.1c-2.5-0.4-3.7,1.1-6.8,0.4
			c-1.7-0.4-0.9-2.1,0.7-1.1c0.6,0.4,0.8,0.7,1.4,0.7c0.9,0,2.4-0.6,3.4-0.3c0.1-0.4-0.1-0.6-0.4-0.8c0.4-0.3,1.4,0.1,1.9,0.6
			c-0.1-1.4-1.2-1.8-3-1.4c0.2-0.7-0.7-0.8-0.7-0.8s0,0.3-0.4,0.6c-0.8-0.1-1.4,0.4-1.9,0.5c-0.3-0.2-0.7-0.4-1.4-0.4
			c-0.8,0-2.5,1.2-1,2.8c0.6,0.7,2.5,1,4.6,0.7c1.2-0.2,2.4-0.6,3.6-0.1c1.4,0.7,0.4,2.3-0.9,1.7c-0.7-0.3-2.4-0.8-2.9-0.9
			c-0.5-0.1-2.8-0.6-4.2-0.3c-1.6,0.3-2.1,0.9-7.8,2c0,0,1-0.4,0.7-1.3c-0.3,0.1-0.9-0.1-0.9-0.1l-0.1-1c0,0,0.3-1.3,0.1-2.1
			c0,0,0-0.2,0-0.2c-0.2,0.1-0.4,0.1-0.5,0c-0.2-0.2-0.3-0.6,0.2-1c0,0-0.4-0.2-0.9,0.1c-0.4,0.1-0.4-1.1-1.4-0.1
			c-0.2,0.3,0.1-0.4-0.9-0.4c0.1,1,0,1.6-1.3,1.4C18.4,36,19,37,19.1,37.4c0,0,0.5,0,0.6,0.3c0.7-0.6,1.1-0.3,1.1,0.3
			c0,0-0.3,0.1-0.5,0.2c-0.1,0-0.2-0.1-0.3-0.1c-0.3-0.1-0.5-0.2-0.8,0.1c-0.3,0.3-0.3,0.8-0.1,1c0.7,0.5,0.6-0.4,1.1,0.1
			c0.1,0.1-0.2,0.4-0.6,0.3c-0.6-0.1-0.7-0.2-1.1-0.4c-0.4-0.1-0.6,0-1-0.1c-0.3-0.1-0.4-0.4-0.8-0.3c-0.5,0.1,0,0.5-0.2,0.7
			c-0.6,0.1-1.7-0.6-1.9-1.4c-0.1-0.3-0.3-0.1-0.4-0.3c-0.2-0.3,1.1-2.7-1.5-2.2c0,0,0.7,0.2,0.3,0.9c-0.4,0.7,0.7,0.6-0.3,1.1
			c0,0,0.3-1.7-1.2-1.4c-1.1-0.2-0.9,0.9-0.9,0.9s0.4-0.6,0.6,0.2l0.4,0.4C11.6,37.8,9.7,38,10.4,39.7 M20.8,36.2l0.8,0.3
			C20.6,37.1,20.8,36.2,20.8,36.2">
   </path>
   <path class="st0" d="M47.2,42.6c0.4,0,2.7-1.1,2.2-3.8c-0.3-1.7-2-0.9-2.2-0.3c-0.2-0.6-1.9-1.4-2.2,0.3
			C44.5,41.5,46.7,42.6,47.2,42.6">
   </path>
   <path class="st0" d="M18.1,38.3c0.6-0.1,1.3-0.6,0.2-0.9c-1.5-0.4-0.7-0.9-0.4-1.1c0.6-0.6-0.1-1.2-0.8-0.6
			C15.7,37.1,17.4,38.5,18.1,38.3">
   </path>
   <path class="st0" d="M6.4,42.6c0.4,0,2.7-1.1,2.2-3.8c-0.3-1.7-2-0.9-2.2-0.3c-0.2-0.6-1.9-1.4-2.2,0.3C3.7,41.5,6,42.6,6.4,42.6">
   </path>
   <path class="st0" d="M27,39c0.4,0,2.7-1.1,2.2-3.8c-0.3-1.7-2-0.9-2.2-0.3c-0.2-0.6-1.9-1.4-2.2,0.3C24.3,37.9,26.6,39,27,39">
   </path>
   <path class="st0" d="M11.3,52.2c0.6,0.5,1.3-0.1,1.3-0.1L12.5,53l-0.6,0.4c0,0,0.4,1.6,1.9,0.1l0.4,0.4c0,0,0,0.4,0.3,0.6
			c0.4,0.3,1,0.1,1,0.1s0.7,0.7,1.6-0.2c1.1,0.4-0.4,0.7-1.6,1.3c-0.9,0.4-1,0.7-1.2,0.7c-0.4,0.1-0.9-0.2-0.9-0.2
			c0.5-2.5-2.5-1.5-2.2-0.9c0.8,0.2,0.7,0.1,0.7,0.4c-0.4,0.2-1.6,0.1-1.4,1.5c0.6-0.4,1.4-0.3,0.4,0.6c-0.6,0.5-0.2,1.1,0.5,1.6
			c0.1-0.2,0-0.8,0.5-0.4c0.5,0.5,0.4-0.6,1.3-0.8c0.9-0.2,0.3,0.6,0.9,0.5c0.6-0.1,0,0.2-0.1,0.6c-0.1,0.4,1.6,0,1.6-1.5
			c1.3-0.1,2.2,0.2,3.1,0.4c0.1-0.8,0.3-1.2,0.7-1.2c0.4,0,0.4,1.1,1.6,0.8l-0.3-0.9L23,57c0.2,0.1,1,0.2,1.3-0.5c0,0,0.7,0,1.4-0.4
			c0.4-0.2,0.5-0.6,0.5-0.6c1.1-1.1,2.6-2,4.2-2c1.1,0,0.8,0.2,0.2,0.6c-0.8,0.5-0.7,0.8-1.1,1.7c-0.2,0.4-0.7,0.6-1.4,0.3
			c0.6-1.8-2-0.4-1.6-0.3c0.7,0.3,0.5,0.4,0.5,0.4c-2.2-0.3-1.5,1.3-1.5,1.3c0.1-0.3,1.2-0.9,0.6-0.1c-0.9,1,0.5,1.6,0.3,1.2
			c-0.2-0.4,0-0.7,0.4-0.7c0.4,0,0.8,0.4,1.2,0.1c0.9-0.5,1.2-0.3,1.2,0.5c0,0,0.9,0.1,1.6-1.3c0.7,0.3,1.1-0.1,1.1-0.1
			s0.5,0.1,0.7,0c0.3-0.1,0.5-0.2,0.6-0.4c0.9,1,2.1,0.1,2-1c-1.4,1.2-1-0.6-1.1-1.1c-0.1-0.4,0.7-1.1,0.7-0.2
			c0,0.8,0.6,0.6,0.8,0.7c0.3,0.2,0.4,0.7,1.1,0.9c0.6,0.2,2.4-0.2,2.9-0.4c0.4-0.1,1.4,0,1.4,0.7c0,0.7-0.4,0.6-0.6,0.2
			c-0.4-0.6-0.7-0.9-1.3-0.2c-0.4,0.4,0.1,0.3,0.1,0.3c0.4,0.3,0,0.7-0.4,1.1c-0.9,0.7,0.1,1.1-0.1,0.9c-0.1-0.2,0.1-0.3,0.5-0.2
			c0.3,0.1,0.3,0.2,0.8,0.2c0.3,0,0.7-0.5,0.7-0.5s-0.3,1.8,1.2,1.3l-0.1-0.5c1.2-0.4,0.4-1.1,0.7-1c0.4,0.1,0.6,0,0.9-0.2
			c0.2-0.2,0.3-0.5,0.3-0.5l0.1,0.9c1-0.1,0.3-1.6,0.3-1.6s-0.5-1-1.2,0.1c-0.3-0.6,0.5-0.6,0.8-0.7c0.6-0.2,0.2-0.4,0.1-0.4
			c-0.2,0-0.5-0.1-0.1-0.9c0.4-0.9-0.4-1.4-0.4-1.4c-0.2,0.5-0.8,0.7-1.2,0.4c-0.4-0.3-1-0.3-1.1-0.3c-1.1,0.2-1.5,0-2.3-0.1
			c-0.7,0-0.5-0.5,0-0.4c2,0.3,2.7-0.1,2.7-0.1s0.4,0.3,1,0.4c-0.2-0.8,0-1.4,0.7-2.3c-0.2,0-0.6,0.1-0.9,0.1
			c-0.3-0.4,0.3-1.1,0.6-1c-0.9-1.4-1.4,0.2-1.5-0.2c-0.1-0.4-0.8-1-1.4-1.1c-2.5-0.4-3.7,1.1-6.8,0.4c-1.7-0.4-0.9-2.1,0.7-1.1
			c0.6,0.4,0.8,0.7,1.4,0.7c0.9,0,2.4-0.6,3.4-0.3c0.1-0.4-0.1-0.6-0.4-0.8c0.4-0.3,1.4,0.1,1.9,0.6c-0.1-1.4-1.2-1.8-3-1.4
			c0.2-0.7-0.7-0.8-0.7-0.8s0,0.3-0.4,0.6c-0.8-0.1-1.4,0.4-1.9,0.5c-0.3-0.2-0.7-0.4-1.4-0.4c-0.8,0-2.5,1.2-1,2.8
			c0.6,0.7,2.5,1,4.6,0.7c1.2-0.2,2.4-0.6,3.6-0.1c1.4,0.7,0.4,2.3-0.9,1.7c-0.7-0.3-2.4-0.8-2.9-0.9c-0.5-0.1-2.8-0.6-4.2-0.3
			c-1.6,0.3-2.1,0.9-7.8,2c0,0,1-0.4,0.7-1.3c-0.3,0.1-0.9-0.1-0.9-0.1l-0.1-1c0,0,0.3-1.3,0.1-2.1c0,0,0-0.2,0-0.2
			c-0.2,0.1-0.4,0.1-0.5,0c-0.2-0.2-0.3-0.6,0.2-1c0,0-0.4-0.2-0.9,0.1c-0.4,0.1-0.4-1.1-1.4-0.1c-0.2,0.3,0.1-0.4-0.9-0.4
			c0.1,1,0,1.6-1.3,1.4c-0.4,0.4,0.1,1.4,0.2,1.8c0,0,0.5,0,0.6,0.3c0.7-0.6,1.1-0.3,1.1,0.3c0,0-0.3,0.1-0.5,0.2
			c-0.1,0-0.2-0.1-0.3-0.1c-0.3-0.1-0.5-0.2-0.8,0.1c-0.3,0.3-0.3,0.8-0.1,1c0.7,0.5,0.6-0.4,1.1,0.1c0.1,0.1-0.2,0.4-0.6,0.3
			c-0.6-0.1-0.7-0.2-1.1-0.4c-0.4-0.1-0.6,0-1-0.1c-0.3-0.1-0.4-0.4-0.8-0.3c-0.5,0.1,0,0.5-0.2,0.7c-0.6,0.1-1.7-0.6-1.9-1.4
			c-0.1-0.3-0.3-0.1-0.4-0.3c-0.2-0.3,1.1-2.7-1.5-2.2c0,0,0.7,0.2,0.3,0.9c-0.4,0.7,0.7,0.6-0.3,1.1c0,0,0.3-1.7-1.2-1.4
			c-1.1-0.2-0.9,0.9-0.9,0.9s0.4-0.6,0.6,0.2l0.4,0.4c0,0-1.9,0.2-1.1,1.9C11.2,51.5,11,51.8,11.3,52.2 M20.8,48.8l0.8,0.3
			C20.6,49.6,20.8,48.8,20.8,48.8">
   </path>
   <path class="st0" d="M47.2,55.2c0.4,0,2.7-1.1,2.2-3.8c-0.3-1.7-2-0.9-2.2-0.3c-0.2-0.6-1.9-1.4-2.2,0.3
			C44.5,54.1,46.7,55.2,47.2,55.2">
   </path>
   <path class="st0" d="M17.9,48.8c0.6-0.6-0.1-1.2-0.8-0.6c-1.4,1.4,0.3,2.8,1.1,2.6c0.6-0.1,1.3-0.6,0.2-0.9
			C16.8,49.6,17.6,49,17.9,48.8">
   </path>
   <path class="st0" d="M6.4,55.2c0.4,0,2.7-1.1,2.2-3.8c-0.3-1.7-2-0.9-2.2-0.3c-0.2-0.6-1.9-1.4-2.2,0.3C3.7,54.1,6,55.2,6.4,55.2">
   </path>
   <path class="st0" d="M27,47.4c-0.2-0.6-1.9-1.4-2.2,0.3c-0.5,2.7,1.8,3.8,2.2,3.8c0.4,0,2.7-1.1,2.2-3.8
			C28.9,46,27.2,46.8,27,47.4">
   </path>
   <path class="st0" d="M11.3,65.3c0.6,0.5,1.3-0.1,1.3-0.1l-0.1,0.9l-0.6,0.4c0,0,0.4,1.6,1.9,0.1l0.4,0.4c0,0,0,0.4,0.3,0.6
			c0.4,0.3,1,0.1,1,0.1s0.7,0.7,1.6-0.2c1.1,0.4-0.4,0.7-1.6,1.3c-0.9,0.4-1,0.7-1.2,0.7c-0.4,0.1-0.9-0.2-0.9-0.2
			c0.5-2.5-2.5-1.5-2.2-0.9c0.8,0.2,0.7,0.1,0.7,0.4c-0.4,0.2-1.6,0.1-1.4,1.5c0.6-0.4,1.4-0.4,0.4,0.6c-0.6,0.5-0.2,1.1,0.5,1.6
			c0.1-0.2,0-0.8,0.5-0.4c0.5,0.5,0.4-0.6,1.3-0.8c0.9-0.2,0.3,0.6,0.9,0.5c0.6-0.1,0,0.2-0.1,0.6c-0.1,0.4,1.6,0,1.6-1.5
			c1.3-0.1,2.2,0.2,3.1,0.4c0.1-0.8,0.3-1.2,0.7-1.2c0.4,0,0.4,1.1,1.6,0.8L20.9,70l2.2,0.1c0.2,0.1,1,0.2,1.3-0.5
			c0,0,0.7,0,1.4-0.4c0.4-0.2,0.5-0.6,0.5-0.6c1.1-1.1,2.6-2,4.2-2c1.1,0,0.8,0.2,0.2,0.6c-0.8,0.5-0.7,0.8-1.1,1.7
			c-0.2,0.4-0.7,0.6-1.4,0.3c0.6-1.8-2-0.4-1.6-0.3c0.7,0.3,0.5,0.4,0.5,0.4c-2.2-0.3-1.5,1.3-1.5,1.3c0.1-0.3,1.2-0.9,0.6-0.1
			c-0.9,1,0.5,1.6,0.3,1.2c-0.2-0.4,0-0.7,0.4-0.7c0.4,0,0.8,0.4,1.2,0.1c0.9-0.5,1.2-0.3,1.2,0.5c0,0,0.9,0.1,1.6-1.3
			c0.7,0.3,1.1-0.1,1.1-0.1s0.5,0.1,0.7,0c0.3-0.1,0.5-0.2,0.6-0.4c0.9,1,2.1,0.1,2-1c-1.4,1.2-1-0.6-1.1-1.1
			c-0.1-0.4,0.7-1.1,0.7-0.2c0,0.8,0.6,0.6,0.8,0.7c0.3,0.2,0.4,0.7,1.1,0.9c0.6,0.2,2.4-0.2,2.9-0.4c0.4-0.1,1.4,0,1.4,0.7
			c0,0.7-0.4,0.6-0.6,0.2c-0.4-0.6-0.7-0.9-1.3-0.2c-0.4,0.4,0.1,0.3,0.1,0.3c0.4,0.3,0,0.7-0.4,1.1c-0.9,0.7,0.1,1.1-0.1,0.9
			c-0.1-0.2,0.1-0.3,0.5-0.2c0.3,0.1,0.3,0.2,0.8,0.2c0.3,0,0.7-0.5,0.7-0.5s-0.3,1.8,1.2,1.3l-0.1-0.5c1.2-0.4,0.4-1.1,0.7-1
			c0.4,0.1,0.6,0,0.9-0.2c0.2-0.2,0.3-0.5,0.3-0.5l0.1,0.9c1-0.1,0.3-1.6,0.3-1.6s-0.5-1-1.2,0.1c-0.3-0.6,0.5-0.6,0.8-0.7
			c0.6-0.2,0.2-0.4,0.1-0.4c-0.2,0-0.5-0.1-0.1-0.9c0.4-0.9-0.4-1.4-0.4-1.4c-0.2,0.5-0.8,0.7-1.2,0.4c-0.4-0.3-1-0.3-1.1-0.3
			c-1.1,0.2-1.5,0-2.3-0.1c-0.7,0-0.5-0.5,0-0.4c2,0.3,2.7-0.1,2.7-0.1s0.4,0.3,1,0.4c-0.2-0.8,0-1.4,0.7-2.3
			c-0.2,0-0.6,0.1-0.9,0.1c-0.3-0.4,0.3-1.1,0.6-1c-0.9-1.4-1.4,0.2-1.5-0.2c-0.1-0.4-0.8-1-1.4-1.1c-2.5-0.4-3.7,1.1-6.8,0.4
			c-1.7-0.4-0.9-2.1,0.7-1.1c0.6,0.4,0.8,0.7,1.4,0.7c0.9,0,2.4-0.6,3.4-0.3c0.1-0.4-0.1-0.6-0.4-0.8c0.4-0.3,1.4,0.1,1.9,0.6
			c-0.1-1.4-1.2-1.8-3-1.4c0.2-0.7-0.7-0.8-0.7-0.8s0,0.3-0.4,0.6c-0.8-0.1-1.4,0.4-1.9,0.5c-0.3-0.2-0.7-0.4-1.4-0.4
			c-0.8,0-2.5,1.2-1,2.8c0.6,0.7,2.5,1,4.6,0.7c1.2-0.2,2.4-0.6,3.6-0.1c1.4,0.7,0.4,2.3-0.9,1.7c-0.7-0.3-2.4-0.8-2.9-0.9
			c-0.5-0.1-2.8-0.6-4.2-0.3c-1.6,0.3-2.1,0.9-7.8,2c0,0,1-0.4,0.7-1.3c-0.3,0.1-0.9-0.1-0.9-0.1l-0.1-1c0,0,0.3-1.3,0.1-2.1
			c0,0,0-0.2,0-0.2c-0.2,0.1-0.4,0.1-0.5,0c-0.2-0.2-0.3-0.6,0.2-1c0,0-0.4-0.2-0.9,0.1c-0.4,0.1-0.4-1.1-1.4-0.1
			c-0.2,0.3,0.1-0.4-0.9-0.4c0.1,1,0,1.6-1.3,1.4c-0.4,0.4,0.1,1.4,0.2,1.8c0,0,0.5,0,0.6,0.3c0.7-0.6,1.1-0.3,1.1,0.3
			c0,0-0.3,0.1-0.5,0.2c-0.1,0-0.2-0.1-0.3-0.1c-0.3-0.1-0.5-0.2-0.8,0.1c-0.3,0.3-0.3,0.8-0.1,1c0.7,0.5,0.6-0.4,1.1,0.1
			c0.1,0.1-0.2,0.4-0.6,0.3c-0.6-0.1-0.7-0.2-1.1-0.4c-0.4-0.1-0.6,0-1-0.1c-0.3-0.1-0.4-0.4-0.8-0.3c-0.5,0.1,0,0.5-0.2,0.7
			c-0.6,0.1-1.7-0.6-1.9-1.4c-0.1-0.3-0.3-0.1-0.4-0.3c-0.2-0.3,1.1-2.7-1.5-2.2c0,0,0.7,0.2,0.3,0.9c-0.4,0.7,0.7,0.6-0.3,1.1
			c0,0,0.3-1.7-1.2-1.4c-1.1-0.2-0.9,0.9-0.9,0.9s0.4-0.6,0.6,0.2l0.4,0.4c0,0-1.9,0.2-1.1,1.9C11.2,64.6,11,64.9,11.3,65.3
			 M20.8,61.9l0.8,0.3C20.6,62.7,20.8,61.9,20.8,61.9">
   </path>
   <path class="st0" d="M47.2,68.2c0.4,0,2.7-1.1,2.2-3.8c-0.3-1.7-2-0.9-2.2-0.3c-0.2-0.6-1.9-1.4-2.2,0.3
			C44.5,67.2,46.7,68.2,47.2,68.2">
   </path>
   <path class="st0" d="M17.9,61.9c0.6-0.6-0.1-1.2-0.8-0.6c-1.4,1.4,0.3,2.8,1.1,2.6c0.6-0.1,1.3-0.6,0.2-0.9
			C16.8,62.6,17.6,62.1,17.9,61.9">
   </path>
   <path class="st0" d="M6.4,68.2c0.4,0,2.7-1.1,2.2-3.8c-0.3-1.7-2-0.9-2.2-0.3c-0.2-0.6-1.9-1.4-2.2,0.3C3.7,67.2,6,68.2,6.4,68.2">
   </path>
   <path class="st0" d="M27,60.5c-0.2-0.6-1.9-1.4-2.2,0.3c-0.5,2.7,1.8,3.8,2.2,3.8c0.4,0,2.7-1.1,2.2-3.8
			C28.9,59.1,27.2,59.9,27,60.5">
   </path>
   <path class="st0" d="M3.1,79.3c0.4,0.3,0.9,0,0.9,0l-0.1,0.6L3.5,80c0,0,0.3,1.1,1.3,0l0.3,0.2c0,0,0,0.3,0.2,0.4
			C5.7,80.9,6,80.8,6,80.8s0.5,0.5,1.1-0.1c0.7,0.3-0.3,0.4-1.1,0.8c-0.6,0.3-0.7,0.4-0.8,0.5c-0.3,0.1-0.6-0.1-0.6-0.1
			c0.3-1.7-1.7-1-1.5-0.6c0.5,0.1,0.5,0.1,0.5,0.3c-0.2,0.1-1.1,0.1-0.9,1c0.4-0.3,0.9-0.2,0.3,0.4c-0.4,0.3-0.1,0.8,0.3,1.1
			c0.1-0.1,0-0.6,0.3-0.2c0.3,0.3,0.3-0.4,0.9-0.5c0.6-0.1,0.2,0.4,0.6,0.3c0.4-0.1,0,0.1,0,0.4c-0.1,0.2,1.1,0,1.1-1
			c0.9,0,1.5,0.1,2.1,0.2c0-0.5,0.2-0.8,0.5-0.8c0.3,0,0.3,0.7,1.1,0.5l-0.2-0.6l1.5,0.1c0.2,0.1,0.7,0.2,0.9-0.3c0,0,0.5,0,0.9-0.3
			c0.3-0.1,0.4-0.4,0.4-0.4c0.7-0.7,1.8-1.3,2.8-1.3c0.8,0,0.6,0.2,0.1,0.4c-0.6,0.4-0.5,0.5-0.8,1.1c-0.1,0.2-0.5,0.4-1,0.2
			c0.4-1.2-1.4-0.3-1.1-0.2c0.5,0.2,0.3,0.3,0.3,0.3c-1.5-0.2-1,0.8-1,0.8c0.1-0.2,0.8-0.6,0.4,0c-0.6,0.7,0.4,1,0.2,0.8
			c-0.2-0.2,0-0.5,0.3-0.5c0.2,0,0.5,0.2,0.8,0.1c0.6-0.3,0.8-0.2,0.8,0.3c0,0,0.6,0.1,1.1-0.8c0.5,0.2,0.7-0.1,0.7-0.1
			s0.3,0.1,0.5,0c0.2-0.1,0.3-0.2,0.4-0.3c0.6,0.7,1.4,0,1.3-0.7c-0.9,0.8-0.7-0.4-0.7-0.7c0-0.3,0.5-0.7,0.5-0.1
			c0,0.5,0.4,0.4,0.5,0.4c0.2,0.1,0.3,0.5,0.7,0.6c0.4,0.1,1.7-0.1,1.9-0.2c0.3-0.1,0.9,0,0.9,0.5c0,0.5-0.3,0.4-0.4,0.1
			c-0.3-0.4-0.5-0.6-0.9-0.2c-0.3,0.3,0,0.2,0,0.2c0.2,0.2,0,0.5-0.2,0.7c-0.6,0.5,0,0.8,0,0.6c-0.1-0.2,0.1-0.2,0.3-0.1
			c0.2,0,0.2,0.1,0.5,0.1c0.2,0,0.5-0.3,0.5-0.3s-0.2,1.2,0.8,0.8l-0.1-0.3c0.8-0.3,0.2-0.7,0.5-0.7c0.2,0,0.4,0,0.6-0.1
			c0.2-0.1,0.2-0.4,0.2-0.4l0.1,0.6c0.7,0,0.2-1.1,0.2-1.1s-0.3-0.7-0.8,0c-0.2-0.4,0.3-0.4,0.6-0.5c0.4-0.1,0.2-0.3,0-0.3
			c-0.1,0-0.3-0.1-0.1-0.6c0.3-0.6-0.2-0.9-0.2-0.9c-0.1,0.3-0.5,0.5-0.8,0.3c-0.3-0.2-0.6-0.2-0.7-0.2c-0.7,0.1-1,0-1.6,0
			c-0.5,0-0.3-0.3,0-0.3c1.3,0.2,1.8-0.1,1.8-0.1s0.2,0.2,0.7,0.3c-0.1-0.5,0-0.9,0.5-1.5c-0.1,0-0.4,0-0.6,0
			c-0.2-0.3,0.2-0.7,0.4-0.7c-0.6-0.9-0.9,0.1-1-0.1c-0.1-0.3-0.5-0.6-1-0.7c-1.7-0.2-2.5,0.7-4.6,0.2c-1.2-0.3-0.6-1.4,0.5-0.7
			c0.4,0.2,0.6,0.5,1,0.5c0.6,0,1.7-0.4,2.3-0.2c0.1-0.3-0.1-0.4-0.2-0.5c0.3-0.2,1,0,1.3,0.4c-0.1-0.9-0.8-1.2-2.1-0.9
			c0.1-0.5-0.5-0.6-0.5-0.6s0,0.2-0.2,0.4c-0.5-0.1-1,0.3-1.3,0.3c-0.2-0.1-0.5-0.3-0.9-0.3c-0.6,0-1.7,0.8-0.7,1.8
			c0.4,0.4,1.7,0.7,3.2,0.5c0.8-0.1,1.6-0.4,2.4-0.1c0.9,0.4,0.3,1.5-0.6,1.1c-0.5-0.2-1.6-0.5-2-0.6c-0.3-0.1-1.9-0.4-2.8-0.2
			c-1.1,0.2-1.5,0.6-5.3,1.3c0,0,0.7-0.3,0.5-0.9c-0.2,0.1-0.6,0-0.6,0L11.5,78c0,0,0.2-0.8,0.1-1.4c0,0,0-0.2,0-0.1
			c-0.2,0.1-0.3,0.1-0.4,0c-0.1-0.1-0.2-0.4,0.2-0.6c0,0-0.3-0.1-0.6,0.1c-0.2,0.1-0.2-0.7-1-0.1c-0.2,0.2,0-0.3-0.6-0.2
			c0.1,0.7,0,1-0.9,0.9c-0.3,0.3,0.1,0.9,0.1,1.2c0,0,0.4,0,0.4,0.2c0.5-0.4,0.7-0.2,0.7,0.2c0,0-0.2,0.1-0.3,0.1
			c-0.1,0-0.2,0-0.2-0.1c-0.2-0.1-0.3-0.1-0.5,0.1c-0.2,0.2-0.2,0.5,0,0.7c0.4,0.3,0.4-0.3,0.8,0.1c0.1,0.1-0.1,0.3-0.4,0.2
			c-0.4,0-0.5-0.1-0.8-0.3c-0.2-0.1-0.4,0-0.7-0.1c-0.2-0.1-0.3-0.3-0.5-0.2c-0.3,0.1,0,0.3-0.1,0.5c-0.4,0-1.2-0.4-1.3-0.9
			c-0.1-0.2-0.2-0.1-0.3-0.2c-0.1-0.2,0.7-1.8-1-1.5c0,0,0.4,0.1,0.2,0.6C4,77.7,4.7,77.6,4,77.9c0,0,0.2-1.1-0.8-0.9
			c-0.8-0.1-0.6,0.6-0.6,0.6s0.3-0.4,0.4,0.1L3.3,78c0,0-1.3,0.1-0.8,1.3C3,78.8,2.9,79,3.1,79.3 M9.6,77l0.5,0.2
			C9.4,77.5,9.6,77,9.6,77">
   </path>
   <path class="st0" d="M7.8,78.3c0.4-0.1,0.9-0.4,0.1-0.6c-1-0.2-0.5-0.6-0.3-0.8C8,76.6,7.5,76.2,7,76.6
			C6.1,77.5,7.2,78.4,7.8,78.3">
   </path>
   <path class="st0" d="M25.1,88.8c-0.1,0.3-0.5,0.5-0.8,0.3c-0.3-0.2-0.6-0.2-0.7-0.2c-0.7,0.1-1,0-1.6,0c-0.5,0-0.3-0.3,0-0.3
			c1.3,0.2,1.8-0.1,1.8-0.1s0.2,0.2,0.7,0.3c-0.1-0.5,0-0.9,0.5-1.5c-0.1,0-0.4,0-0.6,0c-0.2-0.3,0.2-0.7,0.4-0.7
			c-0.6-0.9-0.9,0.1-1-0.1c-0.1-0.3-0.5-0.6-1-0.7c-1.7-0.2-2.5,0.7-4.6,0.2c-1.2-0.3-0.6-1.4,0.5-0.7c0.4,0.2,0.6,0.5,1,0.5
			c0.6,0,1.7-0.4,2.3-0.2c0.1-0.3-0.1-0.4-0.2-0.5c0.3-0.2,1,0,1.3,0.4c-0.1-0.9-0.8-1.2-2.1-0.9c0.1-0.5-0.5-0.6-0.5-0.6
			s0,0.2-0.2,0.4c-0.5-0.1-1,0.3-1.3,0.3c-0.2-0.1-0.5-0.3-0.9-0.3c-0.6,0-1.7,0.8-0.7,1.8c0.4,0.4,1.7,0.7,3.2,0.5
			c0.8-0.1,1.6-0.4,2.4-0.1c0.9,0.4,0.3,1.5-0.6,1.1c-0.5-0.2-1.6-0.5-2-0.6c-0.3-0.1-1.9-0.4-2.8-0.2c-1.1,0.2-1.5,0.6-5.3,1.3
			c0,0,0.7-0.3,0.5-0.9c-0.2,0.1-0.6,0-0.6,0l-0.1-0.7c0,0,0.2-0.8,0.1-1.4c0,0,0-0.2,0-0.1c-0.2,0.1-0.3,0.1-0.4,0
			c-0.1-0.1-0.2-0.4,0.2-0.6c0,0-0.3-0.1-0.6,0.1c-0.2,0.1-0.2-0.7-1-0.1c-0.2,0.2,0-0.3-0.6-0.2c0.1,0.7,0,1-0.9,0.9
			c-0.3,0.3,0.1,0.9,0.1,1.2c0,0,0.4,0,0.4,0.2c0.5-0.4,0.7-0.2,0.7,0.2c0,0-0.2,0.1-0.3,0.1c-0.1,0-0.2,0-0.2-0.1
			C9.2,86.9,9,86.8,8.8,87c-0.2,0.2-0.2,0.5,0,0.7c0.4,0.3,0.4-0.3,0.8,0.1c0.1,0.1-0.1,0.3-0.4,0.2c-0.4,0-0.5-0.1-0.8-0.3
			c-0.2-0.1-0.4,0-0.7-0.1c-0.2-0.1-0.3-0.3-0.5-0.2c-0.3,0.1,0,0.4-0.1,0.5c-0.4,0-1.2-0.4-1.3-0.9c-0.1-0.2-0.2-0.1-0.3-0.2
			c-0.1-0.2,0.7-1.8-1-1.5c0,0,0.4,0.1,0.2,0.6c-0.2,0.5,0.5,0.4-0.2,0.7c0,0,0.2-1.1-0.8-0.9C2.8,85.6,3,86.3,3,86.3
			s0.3-0.4,0.4,0.1l0.2,0.2c0,0-1.3,0.1-0.8,1.3c0.5-0.5,0.4-0.3,0.6,0c0.4,0.3,0.9,0,0.9,0l-0.1,0.6l-0.4,0.2c0,0,0.3,1.1,1.3,0
			L5.6,89c0,0,0,0.3,0.2,0.4c0.3,0.2,0.7,0.1,0.7,0.1s0.5,0.5,1.1-0.1c0.7,0.3-0.3,0.4-1.1,0.8c-0.6,0.3-0.7,0.4-0.8,0.5
			C5.3,90.8,5,90.6,5,90.6c0.3-1.7-1.7-1-1.5-0.6C4,90.1,4,90.1,4,90.2c-0.2,0.1-1.1,0.1-0.9,1C3.5,91,4,91,3.4,91.6
			c-0.4,0.3-0.1,0.8,0.3,1.1c0.1-0.1,0-0.6,0.3-0.2c0.3,0.3,0.3-0.4,0.9-0.5c0.6-0.1,0.2,0.4,0.6,0.3c0.4-0.1,0,0.1,0,0.4
			c-0.1,0.2,1.1,0,1.1-1c0.9,0,1.5,0.1,2.1,0.2c0-0.5,0.2-0.8,0.5-0.8c0.3,0,0.3,0.7,1.1,0.5L10,91l1.5,0.1c0.2,0.1,0.7,0.2,0.9-0.3
			c0,0,0.5,0,0.9-0.3c0.3-0.1,0.4-0.4,0.4-0.4c0.7-0.7,1.8-1.3,2.8-1.3c0.8,0,0.6,0.2,0.1,0.4c-0.6,0.4-0.5,0.5-0.8,1.1
			c-0.1,0.2-0.5,0.4-1,0.2c0.4-1.2-1.4-0.3-1.1-0.2c0.5,0.2,0.3,0.3,0.3,0.3c-1.5-0.2-1,0.8-1,0.8c0.1-0.2,0.8-0.6,0.4,0
			c-0.6,0.7,0.4,1,0.2,0.8c-0.2-0.2,0-0.5,0.3-0.5c0.2,0,0.5,0.2,0.8,0.1c0.6-0.3,0.8-0.2,0.8,0.3c0,0,0.6,0.1,1.1-0.8
			c0.5,0.2,0.7-0.1,0.7-0.1s0.3,0.1,0.5,0c0.2-0.1,0.3-0.2,0.4-0.3c0.6,0.7,1.4,0,1.3-0.7c-0.9,0.8-0.7-0.4-0.7-0.7
			c0-0.3,0.5-0.7,0.5-0.1c0,0.5,0.4,0.4,0.5,0.4c0.2,0.1,0.3,0.5,0.7,0.6c0.4,0.1,1.7-0.1,1.9-0.2c0.3-0.1,0.9,0,0.9,0.5
			c0,0.5-0.3,0.4-0.4,0.1c-0.3-0.4-0.5-0.6-0.9-0.2c-0.3,0.3,0,0.2,0,0.2c0.2,0.2,0,0.5-0.2,0.7c-0.6,0.5,0,0.8,0,0.6
			c-0.1-0.2,0.1-0.2,0.3-0.1c0.2,0,0.2,0.1,0.5,0.1c0.2,0,0.5-0.3,0.5-0.3s-0.2,1.2,0.8,0.8L24,92.6c0.8-0.3,0.2-0.7,0.5-0.7
			c0.2,0,0.4,0,0.6-0.1c0.2-0.1,0.2-0.4,0.2-0.4l0.1,0.6c0.7,0,0.2-1.1,0.2-1.1s-0.3-0.7-0.8,0c-0.2-0.4,0.3-0.4,0.6-0.5
			c0.4-0.1,0.2-0.3,0-0.3c-0.1,0-0.3-0.1-0.1-0.6C25.6,89.1,25.1,88.8,25.1,88.8 M10,85.7l0.5,0.2C9.8,86.3,10,85.7,10,85.7">
   </path>
   <path class="st0" d="M8,85.7c0.4-0.4-0.1-0.8-0.5-0.4c-0.9,0.9,0.2,1.8,0.7,1.7c0.4-0.1,0.9-0.4,0.1-0.6C7.3,86.2,7.8,85.9,8,85.7
			">
   </path>
  </g>
 </g>
</svg>